<?xml version="1.0" encoding="UTF-8"?>
<!-- Generator: Adobe Illustrator 21.1.0, SVG Export Plug-In . SVG Version: 6.00 Build 0)  -->
<svg version="1.1" id="Layer_1" xmlns="http://www.w3.org/2000/svg" xmlns:xlink="http://www.w3.org/1999/xlink" x="0px" y="0px" viewBox="0 0 1268.2 247.1" style="enable-background:new 0 0 1268.2 247.1;" xml:space="preserve">
<style type="text/css">
	.st0{fill:#FFFFFF;}
</style>
<g>
	<g>
		<path class="st0" d="M395.6,201.3v-94l-36.6,70h-15l-36.6-70v94h-27.6v-142h29.6l42,80.8l42.4-80.8h29.4v142H395.6z"/>
		<path class="st0" d="M511.8,202.3c-10,0-19.1-2-27.4-6.1c-8.3-4.1-15.4-9.5-21.3-16.2c-5.9-6.7-10.5-14.4-13.7-23.1    c-3.2-8.7-4.8-17.5-4.8-26.6c0-9.5,1.7-18.5,5.1-27.2c3.4-8.7,8.1-16.3,14.2-23c6.1-6.7,13.2-12,21.5-15.9    c8.3-3.9,17.3-5.9,27-5.9c10,0,19.1,2.1,27.4,6.3c8.3,4.2,15.3,9.7,21.2,16.5c5.9,6.8,10.4,14.5,13.6,23.2    c3.2,8.7,4.8,17.5,4.8,26.4c0,9.5-1.7,18.5-5.1,27.1c-3.4,8.6-8.1,16.2-14.1,22.8c-6,6.6-13.1,11.9-21.4,15.8    C530.5,200.4,521.5,202.3,511.8,202.3z M472.4,130.3c0,6.1,0.9,12.1,2.7,17.8c1.8,5.7,4.4,10.8,7.8,15.2    c3.4,4.4,7.6,7.9,12.5,10.6c4.9,2.7,10.5,4,16.8,4c6.4,0,12-1.4,16.9-4.1c4.9-2.7,9-6.4,12.3-10.9c3.3-4.5,5.9-9.6,7.6-15.3    c1.7-5.7,2.6-11.4,2.6-17.3c0-6.1-0.9-12.1-2.8-17.8c-1.9-5.7-4.5-10.8-7.9-15.2c-3.4-4.4-7.5-7.9-12.4-10.5    c-4.9-2.6-10.4-3.9-16.5-3.9c-6.4,0-12,1.4-16.9,4.1c-4.9,2.7-9,6.3-12.4,10.8c-3.4,4.5-6,9.5-7.7,15.2    C473.3,118.7,472.4,124.5,472.4,130.3z"/>
		<path class="st0" d="M628.4,110.3v91h-27.6v-142h21.4l74,93.2v-93h27.6v141.8h-22.4L628.4,110.3z"/>
		<path class="st0" d="M753.4,201.3v-142h60.2c6.5,0,12.6,1.4,18.1,4.1c5.5,2.7,10.3,6.3,14.3,10.8c4,4.5,7.1,9.5,9.4,15.2    c2.3,5.7,3.4,11.4,3.4,17.1c0,6-1.1,11.8-3.2,17.5c-2.1,5.7-5.1,10.7-9,15.1c-3.9,4.4-8.5,7.9-14,10.6c-5.5,2.7-11.5,4-18,4H781    v47.6H753.4z M781,129.5h32c5.1,0,9.3-2.1,12.7-6.2c3.4-4.1,5.1-9.7,5.1-16.8c0-3.6-0.5-6.8-1.6-9.7c-1.1-2.9-2.5-5.3-4.2-7.3    c-1.7-2-3.8-3.5-6.1-4.5c-2.3-1-4.7-1.5-7.1-1.5H781V129.5z"/>
		<path class="st0" d="M877.6,201.3v-142h27.6v117.8h72.4v24.2H877.6z"/>
		<path class="st0" d="M981,201.3l56-142h22.4l55.8,142H1086l-13-35.4h-49.8l-13,35.4H981z M1048.2,89.1l-20.4,57.4h40.2    L1048.2,89.1z"/>
		<path class="st0" d="M1158,110.3v91h-27.6v-142h21.4l74,93.2v-93h27.6v141.8H1231L1158,110.3z"/>
	</g>
	<g>
		<path class="st0" d="M110,0L0,60l110,60l90-49.1V140h20V60L110,0z"/>
		<polygon class="st0" points="180,101.8 180,141.8 120,174.5 120,134.5   "/>
		<polygon class="st0" points="100,134.5 100,174.5 40,141.8 40,101.8   "/>
		<polygon class="st0" points="180,161.8 180,201.8 120,234.5 120,194.5   "/>
		<polygon class="st0" points="100,194.5 100,234.5 40,201.8 40,161.8   "/>
	</g>
</g>
</svg>